<<<<<<< Updated upstream
=======
<<<<<<< HEAD
<mxfile host="Electron" modified="2023-06-03T07:57:53.909Z" agent="5.0 (Windows NT 10.0; Win64; x64) AppleWebKit/537.36 (KHTML, like Gecko) draw.io/13.9.9 Chrome/85.0.4183.121 Electron/10.1.5 Safari/537.36" etag="BAZBv6g78pzWhRmd3v4r" version="13.9.9" type="device"><diagram id="6a731a19-8d31-9384-78a2-239565b7b9f0" name="Page-1">7V1bc6M4Fv41VM0+JMX98mjseDq13Tu9SVfNzqOMFUMHEAPYiefXryQkbsKOu+MAdpOHBAlJnCN9+nR0dImkzaPX31OQ+F/QGoaSKq9fJW0hqaqq6xb+Q2L2RYxiWUYRs0mDNYurIh6DfyCLlFnsNljDrJEwRyjMg6QZ6aE4hl7eiANpil6ayZ5Q2PxqAjZQiHj0QCjG/hmsc5/FKqZTvfgEg43PPm2rTOMV8J43KdrG7HsximHxJgK8GKZj5oM1eqlFaXeSNk8Ryoun6HUOQ1KvvMaKfMsDb0uRUxjnJ2WwdNYoOxBumeJMtHzPawKuccWwIFVGc6l6kJQi49D3bZS0Evh5FOKQgh9LJUnSEKxg6JY1NEchSqtcWQ7SfEYarxW3DMKQlQDjNU/hhSDLAq+IZEnIF7/DPN8zRIFtjnAUSnMfbVAMws8IJVyyPEXPkMsgqZq6NFxrXr7h7a7hmCcU50sQBSHB8ycY7mAeeIC9YN9STBauF6npurEgRSbAC+INjjVwSGwp1ngZ2qYeLJuHgQ3XwQbyhJapF7GkYWqZWRv/DlEE83SPE6QwBHmwayIasI6xKdNVCMEPDCQHAWNOgLk4wFjKgICxJsBcHGBMeUDA2BNgLg4whjYgYBwBMNge3eK2V2U8UpohltJdpfhpQ56+pdLclFyZ/J4pWH1V/u9WulMk15UcxcPBT9Jck1wVCLCrMEba6sUPcviI65C8fcFm8DtAVm/1RmSjwTGeuqDxs0BY0h8cD8JgExP04qaHKc/I9FYEpIDUY6VaOJTANMCtBtPHMpF6DE47mObw9ShI2Fud0xCbQ2g8/FIZ5KrGLFi/ZosrsnxrnANahvxOLlL65qKfJpo72zB19eeJRj+CryZ82uBqwXolQw2apxMSp54WIZnDEZKhTKi5UNQYA6JGnVBzoagZcD7OJaqhJsvUWyJ5kgbUuvFwHaQoDCExgUBEzJR4lSWl1qM1cCCHybtBIRg4x1HSl4GjGE0DR3d0brfUTRzuEm2ZOGeBjy7A55sPURrAbOTgeJJtaCs9g0PuERw3pZuYocMyLQEbJYLq2DDPAw3RNTxLEgjCCRhDA8NuAsPUxXnRRwJDdAF/Bnu0zSdgDAwMRekXCJNrt4YOxXQcCrsPN2pPNFZ5I7dcuwN66ozJtXuBgFEHBIzo2pVUcdoyYaZHzLTQcfalRZb1Kwrwh8uxzeQ7FbjNo8m3hizrMvtpFVgAm5XRQlwp1IkgNEUncJYpZIr9jS8bGHSi/fcWxPWJd7TzRm4SETitzwKekc6wdacJG8OSO2bYH2gjmV2+YLYkxVekFvc4wW9rmGCSgLFHxA/i79DLA0Tw9C9xDSskK1QzLCDBvbyGGal8UlU5rkTyJM11yVEYPG2NVghZ1NIAflzx+CXBJgu4pKTEZ6GZQXq6X66LORjJWFu5+rBXrJ+RpyLTTHKXnV/O06AMEtmefRDgP/d/zEXFbvCL+bZwW7FSZ0ZSFlsWpGxpQc2CuV7OkpT/lIIIvqD0meSmwhNHGAjiLj9Ylxy5DxD5Q1WmC4M7/gE3KGqAv2goTcSk2egqI6tPjer07Fd5cr+seRKsdLFEXeqStyTlMRiKqypu1Kxj6qsV7MOv1xfLmLZ62xqeOnlGszoXK53zLFZyQ+0Y1bS6kRa1QLmqUEgG3w0PzpaEOMJglQKq+K7kgVo36+pEn+/dh9nDX5I2o+zBuvQiobxAC5nHPikwoIFZXFIS5hOsghzzPMuIDrH7kgLihhxewW/1jkXZZ8MDi6CuQZesy4fZl7s//3j4dyFtnUB+QCReYw7t8euSUGmwkrcpl4fWsOQ8nNoi1R1V9TNv5A3zXUXWWA6NEk5hfeQ+RE1yIgISPuJCe8KHjrQhxRFjS8YtnO14fb89JmCq/+0+xv0pK0Y09ERovliW6BjdJkobntL0lo/R7nAtaXrXwoRpnonOxJWtZa1HhrWeRLsJ7bTHDaWqx9AxNir7bdQkEJppQXkJkxTrKe720KjuETvhLYvC41YN7ZdJs4t6pd1FDC1MMLiH2axwf9tijpzytat38QszdEpVTvsGVdh19tUAQDpufESJumkWFeIEjNJbe6vy5hypSc5v0zezvgKqW2sw46brbNHNGK3KmQikTwJRWpu3TKPLIlLtLotIP5dFJK5ufgHpM67R0eNhKduWbPSAh7HMzFW575l5x/pmEGVd5siokfJkgCfDviLmMFvIUJS+kTGdceliotEsUzBWbzmiB9y6Z4oLofcxrq5thDUZ/Uaaa+MPwefbN31Mq5wXSB/WgPQhrnI+wg3hDlAsAUz80Sd/qEPbH9Z7T51MBDIAgTjDEYglLjLOURRtY1wbF8AgigrA6prnulaLUTTbuNWd2k+v7CIuE93tLsBONRXPJN++2u2bttWyW9Wu0wAfiQzR4/5j487lnEBS1NnM7WVQOfMJJE71rQse1AEHnw4nK1wHYz89ffV0oshyk090rW8+ee/lQhOfDMUnA55otETv62OC4gyl41+1+fVIRevdSHnvoZOJVIYilQGvZLBEn+zXh4lMxjXhUfW+uaTreMnEJZfAJfZQXHL3jxzcJED+FKrOo/W3+3nxH+fmDFC6Kp9tf8eU4GuQ/49odKspNgv/RYq4lWUeXrxylUlgXwt85dzG4k7EZNdBuQO44NsoP/p81I3S3G5ltxnywIkoDAGwryVLSILs8Hfad3LZzStm8UNR4s8et3qjGo/tbS93ONPdghk9vNHeI812mZP9nqcffOk407IJynJ/tCxt2bn7XNg/+sZ+0mmT9GGDprcD9/qBTlczX3RHFc0X1TbOscPxUGd5rx/3qsaiEdygeco4cfb9BwfO0Rr6raLJquPosqI4fE7WvmHx/OdoD+kteo+v1QS/0FvP3gDsCdh2BrtN+JDsv45j+pcFnT3YfoxDAr13V/EEuvGDbmxuCVv0lt9FK2xh7Uc+V7j+ux9VuTl56Pf2rjcAPN0HOTpvuWJoLcCoI8CL6PacLokcBVp0Q0CLPThcHNGNN10dOQq4tO8UvdHkj2MXHKz+yVnhS6j+i5x2938=</diagram></mxfile>
=======
>>>>>>> Stashed changes
<mxfile host="Electron" modified="2023-06-02T09:30:31.125Z" agent="Mozilla/5.0 (Windows NT 10.0; Win64; x64) AppleWebKit/537.36 (KHTML, like Gecko) draw.io/21.2.8 Chrome/112.0.5615.165 Electron/24.2.0 Safari/537.36" etag="RoqsRm-tSKpjHIOue1mC" version="21.2.8" type="device">
  <diagram id="6a731a19-8d31-9384-78a2-239565b7b9f0" name="Page-1">
    <mxGraphModel dx="2402" dy="1540" grid="1" gridSize="10" guides="1" tooltips="1" connect="1" arrows="1" fold="1" page="1" pageScale="1" pageWidth="1169" pageHeight="827" background="none" math="0" shadow="0">
      <root>
        <mxCell id="0" />
        <mxCell id="1" parent="0" />
        <mxCell id="1745" value="" style="edgeStyle=none;rounded=0;jumpStyle=none;html=1;shadow=0;labelBackgroundColor=none;startArrow=none;startFill=0;endArrow=classic;endFill=1;jettySize=auto;orthogonalLoop=1;strokeColor=#2F5B7C;strokeWidth=3;fontFamily=Helvetica;fontSize=16;fontColor=#23445D;spacing=5;" parent="1" source="1749" target="1764" edge="1">
          <mxGeometry relative="1" as="geometry" />
        </mxCell>
        <mxCell id="1746" value="" style="edgeStyle=none;rounded=0;jumpStyle=none;html=1;shadow=0;labelBackgroundColor=none;startArrow=none;startFill=0;endArrow=classic;endFill=1;jettySize=auto;orthogonalLoop=1;strokeColor=#2F5B7C;strokeWidth=3;fontFamily=Helvetica;fontSize=16;fontColor=#23445D;spacing=5;" parent="1" source="1749" target="1771" edge="1">
          <mxGeometry relative="1" as="geometry" />
        </mxCell>
        <mxCell id="1747" value="" style="edgeStyle=none;rounded=0;jumpStyle=none;html=1;shadow=0;labelBackgroundColor=none;startArrow=none;startFill=0;endArrow=classic;endFill=1;jettySize=auto;orthogonalLoop=1;strokeColor=#2F5B7C;strokeWidth=3;fontFamily=Helvetica;fontSize=16;fontColor=#23445D;spacing=5;" parent="1" source="1749" target="1760" edge="1">
          <mxGeometry relative="1" as="geometry" />
        </mxCell>
        <mxCell id="1748" value="" style="edgeStyle=none;rounded=0;jumpStyle=none;html=1;shadow=0;labelBackgroundColor=none;startArrow=none;startFill=0;endArrow=classic;endFill=1;jettySize=auto;orthogonalLoop=1;strokeColor=#2F5B7C;strokeWidth=3;fontFamily=Helvetica;fontSize=16;fontColor=#23445D;spacing=5;" parent="1" source="1749" target="1753" edge="1">
          <mxGeometry relative="1" as="geometry" />
        </mxCell>
        <mxCell id="1749" value="Module 4&lt;br&gt;Trương Quốc Hòa" style="rounded=1;whiteSpace=wrap;html=1;shadow=0;labelBackgroundColor=none;strokeColor=none;strokeWidth=3;fillColor=#2F5B7C;fontFamily=Helvetica;fontSize=16;fontColor=#FFFFFF;align=center;fontStyle=1;spacing=5;arcSize=7;perimeterSpacing=2;" parent="1" vertex="1">
          <mxGeometry x="460" y="360" width="235" height="100.5" as="geometry" />
        </mxCell>
        <mxCell id="1750" value="" style="edgeStyle=none;rounded=1;jumpStyle=none;html=1;shadow=0;labelBackgroundColor=none;startArrow=none;startFill=0;jettySize=auto;orthogonalLoop=1;strokeColor=#E85642;strokeWidth=3;fontFamily=Helvetica;fontSize=14;fontColor=#FFFFFF;spacing=5;fontStyle=1;fillColor=#b0e3e6;" parent="1" source="1753" target="1756" edge="1">
          <mxGeometry relative="1" as="geometry" />
        </mxCell>
        <mxCell id="1751" value="" style="edgeStyle=none;rounded=1;jumpStyle=none;html=1;shadow=0;labelBackgroundColor=none;startArrow=none;startFill=0;jettySize=auto;orthogonalLoop=1;strokeColor=#E85642;strokeWidth=3;fontFamily=Helvetica;fontSize=14;fontColor=#FFFFFF;spacing=5;fontStyle=1;fillColor=#b0e3e6;" parent="1" source="1753" target="1755" edge="1">
          <mxGeometry relative="1" as="geometry" />
        </mxCell>
        <mxCell id="1752" value="" style="edgeStyle=none;rounded=1;jumpStyle=none;html=1;shadow=0;labelBackgroundColor=none;startArrow=none;startFill=0;jettySize=auto;orthogonalLoop=1;strokeColor=#E85642;strokeWidth=3;fontFamily=Helvetica;fontSize=14;fontColor=#FFFFFF;spacing=5;fontStyle=1;fillColor=#b0e3e6;" parent="1" source="1753" target="1754" edge="1">
          <mxGeometry relative="1" as="geometry" />
        </mxCell>
        <mxCell id="1753" value="ss2.Spring controller" style="rounded=1;whiteSpace=wrap;html=1;shadow=0;labelBackgroundColor=none;strokeColor=none;strokeWidth=3;fillColor=#e85642;fontFamily=Helvetica;fontSize=14;fontColor=#FFFFFF;align=center;spacing=5;fontStyle=1;arcSize=7;perimeterSpacing=2;" parent="1" vertex="1">
          <mxGeometry x="-360" y="385.5" width="290" height="60" as="geometry" />
        </mxCell>
        <mxCell id="1754" value="&lt;b&gt;controller là gì?&amp;nbsp;&lt;br&gt;- là 1 phần curaback end-&lt;br&gt;- có chức năng điều hướng và xử lý những yêu cầu của người dùng và gửi đến view&lt;br&gt;&lt;/b&gt;" style="rounded=1;whiteSpace=wrap;html=1;shadow=0;labelBackgroundColor=none;strokeColor=none;strokeWidth=3;fillColor=#f08e81;fontFamily=Helvetica;fontSize=14;fontColor=#FFFFFF;align=center;spacing=5;fontStyle=0;arcSize=7;perimeterSpacing=2;" parent="1" vertex="1">
          <mxGeometry x="-160" y="660" width="250" height="120" as="geometry" />
        </mxCell>
        <mxCell id="1755" value="Appeal" style="rounded=1;whiteSpace=wrap;html=1;shadow=0;labelBackgroundColor=none;strokeColor=none;strokeWidth=3;fillColor=#f08e81;fontFamily=Helvetica;fontSize=14;fontColor=#FFFFFF;align=center;spacing=5;fontStyle=0;arcSize=7;perimeterSpacing=2;" parent="1" vertex="1">
          <mxGeometry x="-390" y="210" width="150" height="60" as="geometry" />
        </mxCell>
        <mxCell id="1756" value="&lt;b&gt;RequestMapping là gì?&lt;br&gt;- là 1 annotation để ánh xạ các request HTTP đến cắc method xử lý tương ứng của controller&lt;br&gt;&lt;/b&gt;" style="rounded=1;whiteSpace=wrap;html=1;shadow=0;labelBackgroundColor=none;strokeColor=none;strokeWidth=3;fillColor=#f08e81;fontFamily=Helvetica;fontSize=14;fontColor=#FFFFFF;align=center;spacing=5;fontStyle=0;arcSize=7;perimeterSpacing=2;" parent="1" vertex="1">
          <mxGeometry x="-260" y="790" width="180" height="160" as="geometry" />
        </mxCell>
        <mxCell id="1757" value="" style="edgeStyle=none;rounded=0;jumpStyle=none;html=1;shadow=0;labelBackgroundColor=none;startArrow=none;startFill=0;endArrow=classic;endFill=1;jettySize=auto;orthogonalLoop=1;strokeColor=#1699D3;strokeWidth=3;fontFamily=Helvetica;fontSize=14;fontColor=#FFFFFF;spacing=5;" parent="1" source="1760" target="1763" edge="1">
          <mxGeometry relative="1" as="geometry" />
        </mxCell>
        <mxCell id="1758" value="" style="edgeStyle=none;rounded=0;jumpStyle=none;html=1;shadow=0;labelBackgroundColor=none;startArrow=none;startFill=0;endArrow=classic;endFill=1;jettySize=auto;orthogonalLoop=1;strokeColor=#1699D3;strokeWidth=3;fontFamily=Helvetica;fontSize=14;fontColor=#FFFFFF;spacing=5;" parent="1" source="1760" target="1762" edge="1">
          <mxGeometry relative="1" as="geometry" />
        </mxCell>
        <mxCell id="1759" value="+" style="edgeStyle=none;rounded=0;jumpStyle=none;html=1;shadow=0;labelBackgroundColor=none;startArrow=none;startFill=0;endArrow=classic;endFill=1;jettySize=auto;orthogonalLoop=1;strokeColor=#1699D3;strokeWidth=3;fontFamily=Helvetica;fontSize=14;fontColor=#FFFFFF;spacing=5;" parent="1" target="1761" edge="1">
          <mxGeometry relative="1" as="geometry">
            <mxPoint x="645" y="630.5004000000001" as="sourcePoint" />
          </mxGeometry>
        </mxCell>
        <mxCell id="1760" value="ss1. Tổng quan spring mvc" style="rounded=1;whiteSpace=wrap;html=1;shadow=0;labelBackgroundColor=none;strokeColor=none;strokeWidth=3;fillColor=#1699d3;fontFamily=Helvetica;fontSize=14;fontColor=#FFFFFF;align=center;spacing=5;fontStyle=1;arcSize=7;perimeterSpacing=2;" parent="1" vertex="1">
          <mxGeometry x="495" y="570.5" width="150" height="60" as="geometry" />
        </mxCell>
        <mxCell id="1761" value="&lt;b&gt;DI (dependency injection )&lt;br&gt;là 1 design pattern để xóa bỏ sự phụ thuộc, là cơ chế để triển khai IOC&lt;br&gt;- Cung cấp điều khiển bởi framework , container&amp;nbsp;&lt;br&gt;- thao tác với các đối tượng khác thực hiện bởi container&lt;br&gt;&lt;/b&gt;" style="rounded=1;whiteSpace=wrap;html=1;shadow=0;labelBackgroundColor=none;strokeColor=none;strokeWidth=3;fillColor=#64bbe2;fontFamily=Helvetica;fontSize=14;fontColor=#FFFFFF;align=center;spacing=5;arcSize=7;perimeterSpacing=2;" parent="1" vertex="1">
          <mxGeometry x="682.5" y="670.5" width="375" height="109.5" as="geometry" />
        </mxCell>
        <mxCell id="1762" value="&lt;b&gt;điểm khác biệt giữa library và framework&lt;br&gt;- LIBRARY: lập trình viên sẽ nắm quyền và có thể gọi library&lt;br&gt;- FRAMEWORK: framework sẽ nắm quyền ứng dụng và gọi code của mình, và ltv phải tuan theo các quy tắc của framework&lt;br&gt;=&amp;gt; đó là cơ chế IOC(Inversion of Control)&lt;br&gt;&lt;/b&gt;" style="rounded=1;whiteSpace=wrap;html=1;shadow=0;labelBackgroundColor=none;strokeColor=none;strokeWidth=3;fillColor=#64bbe2;fontFamily=Helvetica;fontSize=14;fontColor=#FFFFFF;align=center;spacing=5;arcSize=7;perimeterSpacing=2;" parent="1" vertex="1">
          <mxGeometry x="580" y="840" width="340" height="166.5" as="geometry" />
        </mxCell>
        <mxCell id="1763" value="Framework là gì:&lt;br&gt;là 1 phần mềm có tính trừu tượng cao&amp;nbsp;&lt;br&gt;cung cáp các chức năng chung và thông dụng , có các chức năng tùy biến&lt;br&gt;cung cấp môi trương tổng thể và có thể tái &lt;b&gt;sử&lt;/b&gt; dụng" style="rounded=1;whiteSpace=wrap;html=1;shadow=0;labelBackgroundColor=none;strokeColor=none;strokeWidth=3;fillColor=#64bbe2;fontFamily=Helvetica;fontSize=14;fontColor=#FFFFFF;align=center;spacing=5;arcSize=7;perimeterSpacing=2;" parent="1" vertex="1">
          <mxGeometry x="160" y="650.5" width="285" height="149.5" as="geometry" />
        </mxCell>
        <mxCell id="1764" value="Marketing" style="rounded=1;whiteSpace=wrap;html=1;shadow=0;labelBackgroundColor=none;strokeColor=none;strokeWidth=3;fillColor=#F08705;fontFamily=Helvetica;fontSize=14;fontColor=#FFFFFF;align=center;spacing=5;fontStyle=1;arcSize=7;perimeterSpacing=2;" parent="1" vertex="1">
          <mxGeometry x="495" y="200.5" width="150" height="60" as="geometry" />
        </mxCell>
        <mxCell id="1765" value="Aims&lt;br&gt;" style="rounded=1;whiteSpace=wrap;html=1;shadow=0;labelBackgroundColor=none;strokeColor=none;strokeWidth=3;fillColor=#f5af58;fontFamily=Helvetica;fontSize=14;fontColor=#FFFFFF;align=center;spacing=5;arcSize=7;perimeterSpacing=2;" parent="1" vertex="1">
          <mxGeometry x="695" y="110.5" width="150" height="60" as="geometry" />
        </mxCell>
        <mxCell id="1766" value="" style="edgeStyle=none;rounded=0;jumpStyle=none;html=1;shadow=0;labelBackgroundColor=none;startArrow=none;startFill=0;endArrow=classic;endFill=1;jettySize=auto;orthogonalLoop=1;strokeColor=#F08705;strokeWidth=3;fontFamily=Helvetica;fontSize=14;fontColor=#FFFFFF;spacing=5;" parent="1" source="1764" target="1765" edge="1">
          <mxGeometry relative="1" as="geometry" />
        </mxCell>
        <mxCell id="1767" value="Instruments" style="rounded=1;whiteSpace=wrap;html=1;shadow=0;labelBackgroundColor=none;strokeColor=none;strokeWidth=3;fillColor=#f5af58;fontFamily=Helvetica;fontSize=14;fontColor=#FFFFFF;align=center;spacing=5;arcSize=7;perimeterSpacing=2;" parent="1" vertex="1">
          <mxGeometry x="495" y="50.5" width="150" height="60" as="geometry" />
        </mxCell>
        <mxCell id="1768" value="" style="edgeStyle=none;rounded=0;jumpStyle=none;html=1;shadow=0;labelBackgroundColor=none;startArrow=none;startFill=0;endArrow=classic;endFill=1;jettySize=auto;orthogonalLoop=1;strokeColor=#F08705;strokeWidth=3;fontFamily=Helvetica;fontSize=14;fontColor=#FFFFFF;spacing=5;" parent="1" source="1764" target="1767" edge="1">
          <mxGeometry relative="1" as="geometry" />
        </mxCell>
        <mxCell id="1769" value="Segmentation" style="rounded=1;whiteSpace=wrap;html=1;shadow=0;labelBackgroundColor=none;strokeColor=none;strokeWidth=3;fillColor=#f5af58;fontFamily=Helvetica;fontSize=14;fontColor=#FFFFFF;align=center;spacing=5;arcSize=7;perimeterSpacing=2;" parent="1" vertex="1">
          <mxGeometry x="295" y="110.5" width="150" height="60" as="geometry" />
        </mxCell>
        <mxCell id="1770" value="" style="edgeStyle=none;rounded=0;jumpStyle=none;html=1;shadow=0;labelBackgroundColor=none;startArrow=none;startFill=0;endArrow=classic;endFill=1;jettySize=auto;orthogonalLoop=1;strokeColor=#F08705;strokeWidth=3;fontFamily=Helvetica;fontSize=14;fontColor=#FFFFFF;spacing=5;" parent="1" source="1764" target="1769" edge="1">
          <mxGeometry relative="1" as="geometry" />
        </mxCell>
        <mxCell id="1771" value="Communication" style="rounded=1;whiteSpace=wrap;html=1;shadow=0;labelBackgroundColor=none;strokeColor=none;strokeWidth=3;fillColor=#12aab5;fontFamily=Helvetica;fontSize=14;fontColor=#FFFFFF;align=center;spacing=5;fontStyle=1;arcSize=7;perimeterSpacing=2;" parent="1" vertex="1">
          <mxGeometry x="795" y="385.4999999999999" width="150" height="60" as="geometry" />
        </mxCell>
        <mxCell id="1772" value="Events" style="rounded=1;whiteSpace=wrap;html=1;shadow=0;labelBackgroundColor=none;strokeColor=none;strokeWidth=3;fillColor=#61c6ce;fontFamily=Helvetica;fontSize=14;fontColor=#FFFFFF;align=center;spacing=5;fontStyle=0;arcSize=7;perimeterSpacing=2;" parent="1" vertex="1">
          <mxGeometry x="875" y="524.5" width="150" height="60" as="geometry" />
        </mxCell>
        <mxCell id="1773" value="" style="edgeStyle=none;rounded=1;jumpStyle=none;html=1;shadow=0;labelBackgroundColor=none;startArrow=none;startFill=0;jettySize=auto;orthogonalLoop=1;strokeColor=#12AAB5;strokeWidth=3;fontFamily=Helvetica;fontSize=14;fontColor=#FFFFFF;spacing=5;fontStyle=1;fillColor=#b0e3e6;" parent="1" source="1771" target="1772" edge="1">
          <mxGeometry relative="1" as="geometry" />
        </mxCell>
        <mxCell id="1774" value="Media" style="rounded=1;whiteSpace=wrap;html=1;shadow=0;labelBackgroundColor=none;strokeColor=none;strokeWidth=3;fillColor=#61c6ce;fontFamily=Helvetica;fontSize=14;fontColor=#FFFFFF;align=center;spacing=5;fontStyle=0;arcSize=7;perimeterSpacing=2;" parent="1" vertex="1">
          <mxGeometry x="1005" y="434.5" width="150" height="60" as="geometry" />
        </mxCell>
        <mxCell id="1775" value="" style="edgeStyle=none;rounded=1;jumpStyle=none;html=1;shadow=0;labelBackgroundColor=none;startArrow=none;startFill=0;jettySize=auto;orthogonalLoop=1;strokeColor=#12AAB5;strokeWidth=3;fontFamily=Helvetica;fontSize=14;fontColor=#FFFFFF;spacing=5;fontStyle=1;fillColor=#b0e3e6;" parent="1" source="1771" target="1774" edge="1">
          <mxGeometry relative="1" as="geometry" />
        </mxCell>
        <mxCell id="1776" value="Sponsoring" style="rounded=1;whiteSpace=wrap;html=1;shadow=0;labelBackgroundColor=none;strokeColor=none;strokeWidth=3;fillColor=#61c6ce;fontFamily=Helvetica;fontSize=14;fontColor=#FFFFFF;align=center;spacing=5;fontStyle=0;arcSize=7;perimeterSpacing=2;" parent="1" vertex="1">
          <mxGeometry x="1005" y="324.5" width="150" height="60" as="geometry" />
        </mxCell>
        <mxCell id="1777" value="" style="edgeStyle=none;rounded=1;jumpStyle=none;html=1;shadow=0;labelBackgroundColor=none;startArrow=none;startFill=0;jettySize=auto;orthogonalLoop=1;strokeColor=#12AAB5;strokeWidth=3;fontFamily=Helvetica;fontSize=14;fontColor=#FFFFFF;spacing=5;fontStyle=1;fillColor=#b0e3e6;" parent="1" source="1771" target="1776" edge="1">
          <mxGeometry relative="1" as="geometry" />
        </mxCell>
        <mxCell id="1778" value="PR" style="rounded=1;whiteSpace=wrap;html=1;shadow=0;labelBackgroundColor=none;strokeColor=none;strokeWidth=3;fillColor=#61c6ce;fontFamily=Helvetica;fontSize=14;fontColor=#FFFFFF;align=center;spacing=5;fontStyle=0;arcSize=7;perimeterSpacing=2;" parent="1" vertex="1">
          <mxGeometry x="875" y="244.5" width="150" height="60" as="geometry" />
        </mxCell>
        <mxCell id="1779" value="" style="edgeStyle=none;rounded=1;jumpStyle=none;html=1;shadow=0;labelBackgroundColor=none;startArrow=none;startFill=0;jettySize=auto;orthogonalLoop=1;strokeColor=#12AAB5;strokeWidth=3;fontFamily=Helvetica;fontSize=14;fontColor=#FFFFFF;spacing=5;fontStyle=1;fillColor=#b0e3e6;" parent="1" source="1771" target="1778" edge="1">
          <mxGeometry relative="1" as="geometry" />
        </mxCell>
        <mxCell id="Ez0i-pa0Hl29S7qBLDN9-1779" value="" style="edgeStyle=none;rounded=0;jumpStyle=none;html=1;shadow=0;labelBackgroundColor=none;startArrow=none;startFill=0;endArrow=classic;endFill=1;jettySize=auto;orthogonalLoop=1;strokeColor=#1699D3;strokeWidth=3;fontFamily=Helvetica;fontSize=14;fontColor=#FFFFFF;spacing=5;exitX=0.318;exitY=1.008;exitDx=0;exitDy=0;exitPerimeter=0;" parent="1" source="1760" target="Ez0i-pa0Hl29S7qBLDN9-1780" edge="1">
          <mxGeometry relative="1" as="geometry">
            <mxPoint x="-10" y="860" as="sourcePoint" />
            <Array as="points">
              <mxPoint x="460" y="820" />
            </Array>
          </mxGeometry>
        </mxCell>
        <mxCell id="Ez0i-pa0Hl29S7qBLDN9-1780" value="&lt;b&gt;tại sao phải tiêm sự phụ thuộc để giảm sự phụ thuộc ?&lt;br&gt;-&amp;nbsp;&amp;nbsp;&lt;br&gt;&lt;/b&gt;" style="rounded=1;whiteSpace=wrap;html=1;shadow=0;labelBackgroundColor=none;strokeColor=none;strokeWidth=3;fillColor=#64bbe2;fontFamily=Helvetica;fontSize=14;fontColor=#FFFFFF;align=center;spacing=5;arcSize=7;perimeterSpacing=2;" parent="1" vertex="1">
          <mxGeometry x="-40" y="860" width="240" height="100" as="geometry" />
        </mxCell>
        <mxCell id="Ez0i-pa0Hl29S7qBLDN9-1783" value="" style="edgeStyle=none;rounded=0;jumpStyle=none;html=1;shadow=0;labelBackgroundColor=none;startArrow=none;startFill=0;endArrow=classic;endFill=1;jettySize=auto;orthogonalLoop=1;strokeColor=#2F5B7C;strokeWidth=3;fontFamily=Helvetica;fontSize=16;fontColor=#23445D;spacing=5;" parent="1" target="Ez0i-pa0Hl29S7qBLDN9-1787" edge="1">
          <mxGeometry relative="1" as="geometry">
            <mxPoint x="654.1302994011976" y="360" as="sourcePoint" />
          </mxGeometry>
        </mxCell>
        <mxCell id="Ez0i-pa0Hl29S7qBLDN9-1784" value="" style="edgeStyle=none;rounded=1;jumpStyle=none;html=1;shadow=0;labelBackgroundColor=none;startArrow=none;startFill=0;jettySize=auto;orthogonalLoop=1;strokeColor=#E85642;strokeWidth=3;fontFamily=Helvetica;fontSize=14;fontColor=#FFFFFF;spacing=5;fontStyle=1;fillColor=#b0e3e6;" parent="1" source="Ez0i-pa0Hl29S7qBLDN9-1787" target="Ez0i-pa0Hl29S7qBLDN9-1790" edge="1">
          <mxGeometry relative="1" as="geometry" />
        </mxCell>
        <mxCell id="Ez0i-pa0Hl29S7qBLDN9-1785" value="" style="edgeStyle=none;rounded=1;jumpStyle=none;html=1;shadow=0;labelBackgroundColor=none;startArrow=none;startFill=0;jettySize=auto;orthogonalLoop=1;strokeColor=#E85642;strokeWidth=3;fontFamily=Helvetica;fontSize=14;fontColor=#FFFFFF;spacing=5;fontStyle=1;fillColor=#b0e3e6;" parent="1" source="Ez0i-pa0Hl29S7qBLDN9-1787" target="Ez0i-pa0Hl29S7qBLDN9-1789" edge="1">
          <mxGeometry relative="1" as="geometry" />
        </mxCell>
        <mxCell id="Ez0i-pa0Hl29S7qBLDN9-1786" value="" style="edgeStyle=none;rounded=1;jumpStyle=none;html=1;shadow=0;labelBackgroundColor=none;startArrow=none;startFill=0;jettySize=auto;orthogonalLoop=1;strokeColor=#E85642;strokeWidth=3;fontFamily=Helvetica;fontSize=14;fontColor=#FFFFFF;spacing=5;fontStyle=1;fillColor=#b0e3e6;" parent="1" source="Ez0i-pa0Hl29S7qBLDN9-1787" target="Ez0i-pa0Hl29S7qBLDN9-1788" edge="1">
          <mxGeometry relative="1" as="geometry" />
        </mxCell>
        <mxCell id="Ez0i-pa0Hl29S7qBLDN9-1787" value="Embassy" style="rounded=1;whiteSpace=wrap;html=1;shadow=0;labelBackgroundColor=none;strokeColor=none;strokeWidth=3;fillColor=#e85642;fontFamily=Helvetica;fontSize=14;fontColor=#FFFFFF;align=center;spacing=5;fontStyle=1;arcSize=7;perimeterSpacing=2;" parent="1" vertex="1">
          <mxGeometry x="1200" y="-110" width="150" height="60" as="geometry" />
        </mxCell>
        <mxCell id="Ez0i-pa0Hl29S7qBLDN9-1788" value="Theories" style="rounded=1;whiteSpace=wrap;html=1;shadow=0;labelBackgroundColor=none;strokeColor=none;strokeWidth=3;fillColor=#f08e81;fontFamily=Helvetica;fontSize=14;fontColor=#FFFFFF;align=center;spacing=5;fontStyle=0;arcSize=7;perimeterSpacing=2;" parent="1" vertex="1">
          <mxGeometry x="1530" y="-20" width="150" height="60" as="geometry" />
        </mxCell>
        <mxCell id="Ez0i-pa0Hl29S7qBLDN9-1789" value="Appeal" style="rounded=1;whiteSpace=wrap;html=1;shadow=0;labelBackgroundColor=none;strokeColor=none;strokeWidth=3;fillColor=#f08e81;fontFamily=Helvetica;fontSize=14;fontColor=#FFFFFF;align=center;spacing=5;fontStyle=0;arcSize=7;perimeterSpacing=2;" parent="1" vertex="1">
          <mxGeometry x="1450" y="-208" width="150" height="60" as="geometry" />
        </mxCell>
        <mxCell id="Ez0i-pa0Hl29S7qBLDN9-1790" value="Layout" style="rounded=1;whiteSpace=wrap;html=1;shadow=0;labelBackgroundColor=none;strokeColor=none;strokeWidth=3;fillColor=#f08e81;fontFamily=Helvetica;fontSize=14;fontColor=#FFFFFF;align=center;spacing=5;fontStyle=0;arcSize=7;perimeterSpacing=2;" parent="1" vertex="1">
          <mxGeometry x="1280" y="-300" width="150" height="60" as="geometry" />
        </mxCell>
        <mxCell id="lpJTOKS2XH9Vu74WQ6I0-1780" value="" style="edgeStyle=none;rounded=0;jumpStyle=none;html=1;shadow=0;labelBackgroundColor=none;startArrow=none;startFill=0;endArrow=classic;endFill=1;jettySize=auto;orthogonalLoop=1;strokeColor=#1699D3;strokeWidth=3;fontFamily=Helvetica;fontSize=14;fontColor=#FFFFFF;spacing=5;exitX=0.5;exitY=1;exitDx=0;exitDy=0;" edge="1" parent="1" target="lpJTOKS2XH9Vu74WQ6I0-1782" source="1760">
          <mxGeometry relative="1" as="geometry">
            <mxPoint x="373" y="1009" as="sourcePoint" />
          </mxGeometry>
        </mxCell>
        <mxCell id="lpJTOKS2XH9Vu74WQ6I0-1782" value="&lt;b&gt;các thành phần trong spring framework&lt;br&gt;- bean: là trung tâm của spring core, là các object java cơ bản được quản lý bởi IOC container&lt;br&gt;-Core: cung cấp các tính năng IOC và DI&amp;nbsp;&lt;br&gt;-AOP/ASPECT : lập trình hướng khía cạnh&amp;nbsp;&lt;br&gt;- data access: giao tiếp database&lt;br&gt;- web spring mvc : tạo ứng dụng web&lt;br&gt;&lt;/b&gt;" style="rounded=1;whiteSpace=wrap;html=1;shadow=0;labelBackgroundColor=none;strokeColor=none;strokeWidth=3;fillColor=#64bbe2;fontFamily=Helvetica;fontSize=14;fontColor=#FFFFFF;align=center;spacing=5;arcSize=7;perimeterSpacing=2;" vertex="1" parent="1">
          <mxGeometry x="305" y="1090" width="340" height="166.5" as="geometry" />
        </mxCell>
        <mxCell id="lpJTOKS2XH9Vu74WQ6I0-1783" value="" style="edgeStyle=none;rounded=0;jumpStyle=none;html=1;shadow=0;labelBackgroundColor=none;startArrow=none;startFill=0;endArrow=classic;endFill=1;jettySize=auto;orthogonalLoop=1;strokeColor=#1699D3;strokeWidth=3;fontFamily=Helvetica;fontSize=14;fontColor=#FFFFFF;spacing=5;exitX=0.43;exitY=0.948;exitDx=0;exitDy=0;exitPerimeter=0;" edge="1" parent="1" target="lpJTOKS2XH9Vu74WQ6I0-1785" source="1760">
          <mxGeometry relative="1" as="geometry">
            <mxPoint x="388" y="829.5" as="sourcePoint" />
            <Array as="points">
              <mxPoint x="480" y="880" />
            </Array>
          </mxGeometry>
        </mxCell>
        <mxCell id="lpJTOKS2XH9Vu74WQ6I0-1785" value="&lt;b&gt;tổng quan spring MVC&lt;br&gt;- là 1 nền tảng phát triển ứng dụng java EE&lt;br&gt;- cung cấp 1 front controller / dispatcher serverlet để xử lý và lắng nghe mỗi khi có request đối với ứng dụng&lt;br&gt;- các lợi ích sd front controller: bảo mật I18N(đa ngôn ngữ)&lt;br&gt;&lt;/b&gt;" style="rounded=1;whiteSpace=wrap;html=1;shadow=0;labelBackgroundColor=none;strokeColor=none;strokeWidth=3;fillColor=#64bbe2;fontFamily=Helvetica;fontSize=14;fontColor=#FFFFFF;align=center;spacing=5;arcSize=7;perimeterSpacing=2;" vertex="1" parent="1">
          <mxGeometry x="-90" y="1060" width="340" height="166.5" as="geometry" />
        </mxCell>
        <mxCell id="lpJTOKS2XH9Vu74WQ6I0-1789" value="" style="edgeStyle=none;rounded=1;jumpStyle=none;html=1;shadow=0;labelBackgroundColor=none;startArrow=none;startFill=0;jettySize=auto;orthogonalLoop=1;strokeColor=#E85642;strokeWidth=3;fontFamily=Helvetica;fontSize=14;fontColor=#FFFFFF;spacing=5;fontStyle=1;fillColor=#b0e3e6;exitX=0.5;exitY=1;exitDx=0;exitDy=0;" edge="1" parent="1" target="lpJTOKS2XH9Vu74WQ6I0-1790" source="1753">
          <mxGeometry relative="1" as="geometry">
            <mxPoint x="-452" y="447" as="sourcePoint" />
          </mxGeometry>
        </mxCell>
        <mxCell id="lpJTOKS2XH9Vu74WQ6I0-1790" value="&lt;b&gt;so sánh @RequestParam và @PathVariable&lt;br&gt;- đều sd để gửi giá trị đến server&amp;nbsp;&lt;br&gt;- đều là 1 phần của uRL&amp;nbsp;&lt;br&gt;- @RequestParam: sd để truy xuất giá trị của 1 tham số đầu vào&amp;nbsp; trong query String của request hoặc trong body cuarequest thường dùng chó chức năng tìm kiếm&amp;nbsp;&lt;br&gt;- @PathVariable thường dùng cho chức năng tìm kiếm&amp;nbsp;&lt;br&gt;&lt;/b&gt;" style="rounded=1;whiteSpace=wrap;html=1;shadow=0;labelBackgroundColor=none;strokeColor=none;strokeWidth=3;fillColor=#f08e81;fontFamily=Helvetica;fontSize=14;fontColor=#FFFFFF;align=center;spacing=5;fontStyle=0;arcSize=7;perimeterSpacing=2;" vertex="1" parent="1">
          <mxGeometry x="-450" y="790" width="180" height="350" as="geometry" />
        </mxCell>
      </root>
    </mxGraphModel>
  </diagram>
</mxfile>
>>>>>>> 1a48c734833d4ac07e1cdeadda636a3029d47ed0
